<?xml version="1.0" encoding="utf-8"?>
<!-- Generator: Adobe Illustrator 27.0.0, SVG Export Plug-In . SVG Version: 6.00 Build 0)  -->
<svg version="1.1" id="llama" xmlns="http://www.w3.org/2000/svg" xmlns:xlink="http://www.w3.org/1999/xlink" x="0px" y="0px"
	 viewBox="0 0 1160.1 1162.4" enable-background="new 0 0 1160.1 1162.4" xml:space="preserve">
<circle id="logo-bg" fill="#E5E5E5" cx="580.1" cy="582.4" r="580.1"/>
<path id="body" fill="#FFFFFF" d="M870.2,1084.8c-3.9-20.5-17.2-37.7-35.2-46.9c1.8,0.1,3.6,0.2,5.5,0.2c37.6,0,68-30.4,68-67.9
	c0-20.5-9.1-38.9-23.4-51.3c22.7-14.7,37.8-40.2,37.8-69.3c0-29.4-15.4-55.1-38.4-69.7c20.3-14,33.6-37.4,33.6-63.9
	c0-32.2-19.7-59.9-47.7-71.6c23.1-11.1,39-34.8,39-62.1c0-30.7-20-56.6-47.6-65.5c25.8-11.5,43.8-37.3,43.8-67.4
	c0-37.8-28.5-68.9-65.1-73.2c9.5-12.9,15.1-28.9,15.1-46.2c0-43.2-35-78.2-78.1-78.2c-12.4,0-24.1,2.9-34.5,8
	c-4.9-40.6-39.5-72-81.4-72c-24,0-45.6,10.3-60.5,26.7c-16-22.9-42.5-37.8-72.6-37.8c-44,0-80.5,32.1-87.3,74.1
	c-9.8-4.9-20.9-7.7-32.7-7.7c-40.4,0-73.2,32.8-73.2,73.2c0,8.7,1.5,17.1,4.4,24.9c-47.5,0.5-85.8,39.1-85.8,86.7
	c0,24.9,10.5,47.4,27.4,63.2c-22.2,15.1-36.8,40.5-36.8,69.4c0,36.3,23,67.1,55.2,78.8c-19.7,10.3-33.2,31-33.2,54.8
	c0,27.8,18.4,51.3,43.6,59.1c-33.6,8.2-58.6,38.5-58.6,74.6c0,36,24.8,66.2,58.3,74.5c-9.3,2.9-18,8-25.3,15.3
	c-24.2,24.2-24.2,63.5,0,87.7c3,3,6.1,5.5,9.5,7.8c-11.2,14.2-17.9,32.1-17.9,51.6c0,4.2,0.3,8.2,0.9,12.2
	c88.2,54.2,192,85.4,303.1,85.4C685.8,1162.4,784.9,1134.2,870.2,1084.8z"/>
<g id="ears">
	<path id="ear-right-bg" fill="#FFFFFF" d="M856.2,277.5c-26.6,54.4-63.7,89.1-84.5,81.7c-20.7-7.7-27.1-58-12.8-116.8
		c14.2-58.7,54.4-102.1,87.5-90.2C879.6,164.2,882.8,223.3,856.2,277.5z"/>
	<path id="ear-right" fill="#E0E0E0" d="M834.1,267.8c-16.5,35.3-37.9,58.5-49,54.6c-11-4.1-12.7-35.7-2.8-73.3
		c9.8-37.6,33.3-66.4,51-60.1C850.9,195.4,850.5,232.7,834.1,267.8z"/>
	<path id="ear-left-bg" fill="#FFFFFF" d="M336.4,277.5c26.6,54.4,63.7,89.1,84.5,81.7c20.7-7.7,27.1-58,12.8-116.8
		c-14.2-58.7-54.4-102.1-87.5-90.2C313.1,164.2,309.8,223.3,336.4,277.5z"/>
	<path id="ear-left" fill="#E0E0E0" d="M358.6,267.8c16.4,35.3,37.9,58.5,49,54.6c11-4.1,12.7-35.7,2.8-73.3
		c-9.9-37.6-33.3-66.4-51-60.1C341.8,195.4,342.1,232.7,358.6,267.8z"/>
</g>
<path id="face" fill="#F7F7F7" d="M789.8,487.7c0,136.1-94.8,246.5-211.8,246.5S366.2,623.8,366.2,487.7S461,241.2,578,241.2
	S789.8,351.5,789.8,487.7z"/>
<path id="top" fill="#FFFFFF" d="M748.6,264.4c0.4-3.5,0.7-7.1,0.7-10.8c0-47.8-38.8-86.6-86.5-86.6c-38.2,0-70.6,24.8-82.1,59.1
	c-7-8.2-15.8-14.8-25.7-19.3c-10-5-21.2-7.9-33.2-7.9c-29.3,0-54.6,17.1-66.5,41.8c-35.4,5.3-62.7,35.9-62.7,72.9
	c0,40.7,32.9,73.7,73.6,73.7c28.5,0,53.3-16.2,65.5-39.9c0.1,0,0.3,0,0.4,0c13.5,16.4,34,26.9,56.9,26.9c20.1,0,38.3-8.1,51.5-21.1
	c10.6,27.7,37.4,47.4,68.9,47.4c40.7,0,73.7-33,73.7-73.7C783.1,300.5,769.3,277.5,748.6,264.4z"/>
</svg>
