<?xml version="1.0" encoding="utf-8" ?>
<!-- Generator: Adobe Illustrator 27.0.0, SVG Export Plug-In . SVG Version: 6.00 Build 0)  -->
<svg
  version="1.1"
  id="llama"
  xmlns="http://www.w3.org/2000/svg"
  xmlns:xlink="http://www.w3.org/1999/xlink"
  x="0px"
  y="0px"
  viewBox="0 0 1160.1 1162.4"
  enable-background="new 0 0 1160.1 1162.4"
  xml:space="preserve"
>
<linearGradient
    id="logo-bg_00000148654151081088615710000002911647473358648236_"
    gradientUnits="userSpaceOnUse"
    x1="17.4853"
    y1="1799.4518"
    x2="17.4853"
    y2="1798.4518"
    gradientTransform="matrix(1160.2 0 0 -1160.2 -19706.3984 2087726.25)"
  >
	<stop id="logo-bg-start" offset="0.15" style="stop-color:#5c65c1" />
	<stop id="logo-bg-end" offset="0.95" style="stop-color:#FFFFFF" />
</linearGradient>
<circle
    id="logo-bg"
    fill="url(#logo-bg_00000148654151081088615710000002911647473358648236_)"
    cx="580.1"
    cy="582.4"
    r="580.1"
  />
<path
    id="body"
    fill="#FFFFFF"
    d="M870.2,1084.8c-3.9-20.5-17.2-37.7-35.2-46.9c1.8,0.1,3.6,0.2,5.5,0.2c37.6,0,68-30.4,68-67.9
	c0-20.5-9.1-38.9-23.4-51.3c22.7-14.7,37.8-40.2,37.8-69.3c0-29.4-15.4-55.1-38.4-69.7c20.3-14,33.6-37.4,33.6-63.9
	c0-32.2-19.7-59.9-47.7-71.6c23.1-11.1,39-34.8,39-62.1c0-30.7-20-56.6-47.6-65.5c25.8-11.5,43.8-37.3,43.8-67.4
	c0-37.8-28.5-68.9-65.1-73.2c9.5-12.9,15.1-28.9,15.1-46.2c0-43.2-35-78.2-78.1-78.2c-12.4,0-24.1,2.9-34.5,8
	c-4.9-40.6-39.5-72-81.4-72c-24,0-45.6,10.3-60.5,26.7c-16-22.9-42.5-37.8-72.6-37.8c-44,0-80.5,32.1-87.3,74.1
	c-9.8-4.9-20.9-7.7-32.7-7.7c-40.4,0-73.2,32.8-73.2,73.2c0,8.7,1.5,17.1,4.4,24.9c-47.5,0.5-85.8,39.1-85.8,86.7
	c0,24.9,10.5,47.4,27.4,63.2c-22.2,15.1-36.8,40.5-36.8,69.4c0,36.3,23,67.1,55.2,78.8c-19.7,10.3-33.2,31-33.2,54.8
	c0,27.8,18.4,51.3,43.6,59.1c-33.6,8.2-58.6,38.5-58.6,74.6c0,36,24.8,66.2,58.3,74.5c-9.3,2.9-18,8-25.3,15.3
	c-24.2,24.2-24.2,63.5,0,87.7c3,3,6.1,5.5,9.5,7.8c-11.2,14.2-17.9,32.1-17.9,51.6c0,4.2,0.3,8.2,0.9,12.2
	c88.2,54.2,192,85.4,303.1,85.4C685.8,1162.4,784.9,1134.2,870.2,1084.8z"
  />
<g id="ears">
	<path
      id="ear-right-bg"
      fill="#FFFFFF"
      d="M856.2,277.5c-26.6,54.4-63.7,89.1-84.5,81.7c-20.7-7.7-27.1-58-12.8-116.8
		c14.2-58.7,54.4-102.1,87.5-90.2C879.6,164.2,882.8,223.3,856.2,277.5z"
    />
	<path
      id="ear-right"
      fill="#CECEDB"
      d="M834.1,267.8c-16.5,35.3-37.9,58.5-49,54.6c-11-4.1-12.7-35.7-2.8-73.3
		c9.8-37.6,33.3-66.4,51-60.1C850.9,195.4,850.5,232.7,834.1,267.8z"
    />
	<path
      id="ear-left-bg"
      fill="#FFFFFF"
      d="M336.4,277.5c26.6,54.4,63.7,89.1,84.5,81.7c20.7-7.7,27.1-58,12.8-116.8
		c-14.2-58.7-54.4-102.1-87.5-90.2C313.1,164.2,309.8,223.3,336.4,277.5z"
    />
	<path
      id="ear-left"
      fill="#CECEDB"
      d="M358.6,267.8c16.4,35.3,37.9,58.5,49,54.6c11-4.1,12.7-35.7,2.8-73.3
		c-9.9-37.6-33.3-66.4-51-60.1C341.8,195.4,342.1,232.7,358.6,267.8z"
    />
</g>
<path
    id="face"
    fill="#FFF3E5"
    d="M789.8,487.7c0,136.1-94.8,246.5-211.8,246.5S366.2,623.8,366.2,487.7S461,241.2,578,241.2
	S789.8,351.5,789.8,487.7z"
  />
<g id="mouth">
	<path
      fill="#231F20"
      d="M608.8,664.5c-1.1,0-2.2-0.1-3.3-0.2c-12.6-1.5-21.5-11.5-25.6-17.3l-1-1.4l-1,1.4
		c-4.2,5.8-13,15.8-25.6,17.3c-1.1,0.1-2.2,0.2-3.3,0.2c-10.9,0-22.1-6.4-33.3-19.2c-0.4-0.5-0.6-1-0.5-1.6c0-0.6,0.3-1.2,0.7-1.5
		c0.4-0.4,0.9-0.6,1.5-0.6s1.2,0.3,1.7,0.8c10.3,11.8,20.4,17.7,30,17.7c0.9,0,1.8-0.1,2.7-0.2c13.6-1.6,22.4-14.8,24.8-18.9
		l0.1-0.2l0.1-0.2c0-0.1,0-0.1,0.1-0.2l0.1-0.2V577h4.4v63.9l0.2,0.3c2.4,3.9,11.3,17.1,24.7,18.7c0.9,0.1,1.8,0.2,2.8,0.2
		c9.6,0,19.7-6,30-17.7c0.4-0.5,1-0.8,1.6-0.8c0.5,0,1,0.2,1.5,0.6c0.9,0.8,1,2.2,0.2,3.1C630.9,658.1,619.7,664.5,608.8,664.5z"
    />
	<path
      fill="#231F20"
      d="M579.5,559.3c-17.6-13.6-24.6,3.2-18.8,13.5c5.9,10.3,18.3,15.6,18.3,15.6s12.7-4.9,18.8-15
		C604,563.3,597.5,546.2,579.5,559.3z"
    />
</g>
<g id="eye2">
	<path
      fill="#FFFFFF"
      d="M545.7,487.6c-11,0-19.9-8.9-19.9-19.9s8.9-19.9,19.9-19.9c10.1,0,18.4,7.5,19.7,17.2
		c-1.4-20.7-18.6-37-39.6-37c-21.9,0-39.7,17.8-39.7,39.7s17.8,39.7,39.7,39.7c21,0,38.2-16.4,39.6-37
		C564.1,480.1,555.8,487.6,545.7,487.6z"
    />
	<path
      fill="#050505"
      d="M545.7,447.8c-11,0-19.9,8.9-19.9,19.9s8.9,19.9,19.9,19.9c10.1,0,18.4-7.5,19.7-17.2
		c0.1-0.9,0.2-1.8,0.2-2.7s-0.1-1.8-0.2-2.7C564.1,455.3,555.8,447.8,545.7,447.8z"
    />
</g>
<g id="eye1">
	<path
      fill="#FFFFFF"
      d="M682.5,487.6c-11,0-19.9-8.9-19.9-19.9s8.9-19.9,19.9-19.9c7.8,0,14.5,4.5,17.8,11
		c-4-17.6-19.8-30.8-38.7-30.8c-21.9,0-39.7,17.8-39.7,39.7s17.8,39.7,39.7,39.7c18.9,0,34.7-13.2,38.7-30.8
		C697,483.1,690.3,487.6,682.5,487.6z"
    />
	<path
      fill="#050505"
      d="M682.5,447.8c-11,0-19.9,8.9-19.9,19.9s8.9,19.9,19.9,19.9c7.8,0,14.5-4.5,17.8-11c1.3-2.7,2.1-5.7,2.1-8.9
		s-0.8-6.2-2.1-8.9C697,452.3,690.3,447.8,682.5,447.8z"
    />
</g>
<path
    id="top"
    fill="#FFFFFF"
    d="M748.6,264.4c0.4-3.5,0.7-7.1,0.7-10.8c0-47.8-38.8-86.6-86.5-86.6c-38.2,0-70.6,24.8-82.1,59.1
	c-7-8.2-15.8-14.8-25.7-19.3c-10-5-21.2-7.9-33.2-7.9c-29.3,0-54.6,17.1-66.5,41.8c-35.4,5.3-62.7,35.9-62.7,72.9
	c0,40.7,32.9,73.7,73.6,73.7c28.5,0,53.3-16.2,65.5-39.9c0.1,0,0.3,0,0.4,0c13.5,16.4,34,26.9,56.9,26.9c20.1,0,38.3-8.1,51.5-21.1
	c10.6,27.7,37.4,47.4,68.9,47.4c40.7,0,73.7-33,73.7-73.7C783.1,300.5,769.3,277.5,748.6,264.4z"
  />
</svg>
